<svg width="40" height="40" viewBox="0 0 40 40" fill="none" xmlns="http://www.w3.org/2000/svg">
  <rect width="40" height="40" rx="8" fill="url(#gradient1)"/>
  <path d="M12 28C16.4183 28 20 24.4183 20 20C20 15.5817 16.4183 12 12 12C7.58172 12 4 15.5817 4 20C4 24.4183 7.58172 28 12 28Z" fill="white" opacity="0.9"/>
  <path d="M28 28C32.4183 28 36 24.4183 36 20C36 15.5817 32.4183 12 28 12C23.5817 12 20 15.5817 20 20C20 24.4183 23.5817 28 28 28Z" fill="white" opacity="0.7"/>
  <circle cx="20" cy="20" r="4" fill="white"/>
  <text x="20" y="24" text-anchor="middle" fill="url(#gradient1)" font-family="Arial, sans-serif" font-size="8" font-weight="bold">C</text>
  <defs>
    <linearGradient id="gradient1" x1="0%" y1="0%" x2="100%" y2="100%">
      <stop offset="0%" style="stop-color:#6366f1"/>
      <stop offset="100%" style="stop-color:#8b5cf6"/>
    </linearGradient>
  </defs>
</svg>
